<mxfile host="app.diagrams.net" modified="2023-11-14T10:36:50.794Z" agent="Mozilla/5.0 (Windows NT 10.0; Win64; x64) AppleWebKit/537.36 (KHTML, like Gecko) Chrome/119.0.0.0 Safari/537.36" version="21.6.8" etag="ZY3ODiLmSF8MLDHpONAj" type="github">
  <diagram name="Page-1" id="WqCGlnpHckIurkz3evK_">
    <mxGraphModel>
      <root>
        <mxCell id="0" />
        <mxCell id="1" parent="0" />
      </root>
    </mxGraphModel>
  </diagram>
</mxfile>
